<svg id="be79a078-3d67-4957-8a75-2073849068ec" data-name="Capa 1" xmlns="http://www.w3.org/2000/svg" viewBox="0 0 396 99"><defs><style>.b10a5f22-ba9f-4b3a-8537-f48203cbe105{fill:#5b6670;}</style></defs><title>FIRMA LUISA MAYA</title><path class="b10a5f22-ba9f-4b3a-8537-f48203cbe105" d="M91,35.26h.3a3.5,3.5,0,0,0,2.92-3.6,2.27,2.27,0,0,0-2.55-2.48c-1.87,0-3,2.1-3,3.6A2.21,2.21,0,0,0,91,35.26Z"/><path class="b10a5f22-ba9f-4b3a-8537-f48203cbe105" d="M163,44.56a2.31,2.31,0,0,0-.67-.15c-1.5,0-.6.08-7.13,10.8-1.95,3.23-4.73,7.58-5.93,9.16-.14-1.66-.22-3.76-.22-6.08,0-8.25.9-18.83.9-19,0-1.13-.6-1.73-1.5-1.73-1.95,0-5.48,2.86-7.73,8.71-1.57-5.18-4.87-8.55-8.85-8.55-1.95,0-4.65,1-6.37,5.32a19.78,19.78,0,0,0-1,3.53,25.94,25.94,0,0,1-7.21,4.27A65.85,65.85,0,0,1,109,45.54c1.2-2.1,3.75-6.38,3.75-9.16,0-1.65-.82-2.85-3.3-2.85-5.55,0-7.43,5-7.43,7.58A9.72,9.72,0,0,0,104.38,47c-2.68,4.77-9.72,17-11.12,17-.15,0-.15-.15-.15-1,0-4.05,1.27-19.65,1.27-23.33,0-1.13-.45-1.72-1.65-1.72-2.68,0-4.16,1.93-4.45,8.45-2.4,4.42-9.17,15.71-11.23,18.17a42.46,42.46,0,0,1-.3-5.77c0-8.4,1.12-19.43,1.12-19.58-.3-1.57-1.05-2.18-2-2.18a4.22,4.22,0,0,0-3.6,3.68c0,.08-.52,3.38-1.27,8.93-.6,4.42-3.15,15.75-6.9,15.75S60,55.14,60,48.39c0-2.93.15-5.18.15-5.63,0-4-1.35-5.25-2.55-5.25-2.24,0-3.21,4.08-3.5,9.23-4.11,7.46-9.93,19.35-14.81,19.35-5.48,0-12.15-8.25-18.23-9.45a195.27,195.27,0,0,0,2.1-29c0-3.68-.15-7.13-.3-10.43a2,2,0,0,0-2.17-1.87A2.7,2.7,0,0,0,18,18.16c-.53,13.57-.68,26.18-2,38.1-5,0-9.68,3.08-9.68,7.8a4.57,4.57,0,0,0,4.8,5C15.31,69,18,67,20,60.54c6.46,1.87,12.31,8.55,18.83,8.55,5.1,0,8.7-4.9,15.14-16.18.34,8,2.55,15.88,8.65,15.88,4.2,0,7.57-3.45,9.6-10.13.22,2.55.15,10.06,3.3,10.06,3.49,0,9.12-9.52,12.74-16.26.24,7.54,1.31,16.26,3.77,16.26,3.63,0,11.2-13.29,14.5-19.38a25.61,25.61,0,0,0,5.6,3.77c-5.55,2.4-10,4.88-10,9.45,0,4.13,3.68,6.31,7.5,6.31,5.78-.23,12.15-4,12.15-10.13a8.87,8.87,0,0,0-2-5.7,41.12,41.12,0,0,0,4.27-2.28c0,.87-.06,1.69-.06,2.43,0,8.32,2.1,15.6,5.47,15.6,2.7,0,5.78-4.27,11-14.85q2-4,3.37-7.43c.23,5.48.3,11.93.68,15.38.82,8.1,2.4,6.83,3.08,6.83,2.1,0,4.8-3.38,9.82-11.33a120.83,120.83,0,0,0,6.38-11.48A1.58,1.58,0,0,0,163,44.56ZM11.48,66H11c-1,0-1.65-.52-1.65-1.8,0-3.15,3.15-4.95,6.15-4.95C14.18,65.86,12.38,65.94,11.48,66Zm97.83-29.55c.3,0,.68.15.68.53,0,1-1.43,3.3-2,4.57l-.52,1a7.07,7.07,0,0,1-.45-2.33C107,38.33,108,36.46,109.31,36.46Zm-1.12,29.33a3.17,3.17,0,0,1-3-3.3v-.38c.22-2.7,4.87-4.8,9.52-6.82a5.69,5.69,0,0,1,1.05,3.3C115.76,62.19,112,65.79,108.19,65.79Zm23.18-2.25c-1.05,0-1.5-4-1.5-8.33,0-10.05,1.95-13.57,3.67-13.57,2.4,0,5,5.77,5.1,9.15C137,54.31,132.72,63.54,131.37,63.54Z"/><path class="b10a5f22-ba9f-4b3a-8537-f48203cbe105" d="M342.09,44.56a2.38,2.38,0,0,0-.68-.15c-1.5,0-.6.08-7.12,10.8-2,3.23-4.73,7.58-5.93,9.16-.15-1.66-.22-3.76-.22-6.08,0-8.25.9-18.83.9-19,0-1.13-.6-1.73-1.5-1.73-2,0-5.48,2.86-7.73,8.71-1.57-5.18-4.88-8.55-8.85-8.55-1.95,0-4.65,1-6.38,5.32a19.5,19.5,0,0,0-.93,3.41,35.67,35.67,0,0,1-11.22,13.17c0-1.28.07-2.48.07-3.75a149.62,149.62,0,0,0-1.05-17c-.15-1.73-1-2.4-1.87-2.4a4.05,4.05,0,0,0-3.45,3.45c0,5.1-1.35,25.35-8,25.35-3.22,0-3.67-8.17-3.67-15.45,0-3.22.08-6.22.08-8.25,0-3-.46-4.05-1.66-4.05a4.25,4.25,0,0,0-3.37,2.93c0,1.56-.18,3.65-.31,6-.84,1.51-2.27,4.15-5.1,8.8-1.95,3.23-4.72,7.58-5.92,9.16-.15-1.66-.23-3.76-.23-6.08,0-8.25.9-18.83.9-19,0-1.13-.6-1.73-1.5-1.73-1.95,0-5.47,2.86-7.72,8.71-1.58-5.18-4.88-8.55-8.86-8.55-1.95,0-4.65,1-6.37,5.32a19.28,19.28,0,0,0-.92,3.31c-2.24,4-10.69,18.89-11.24,18.89-.15,0-.23-1.5-.23-4.05s.08-6.3.08-10.35c0-14.63-.6-35.1-5.85-35-5.55.08-8.48,43.73-17,43.73-5,0-7.5-28.28-9.82-36.83-.83-2.92-2.1-6.9-4.95-6.9-5.18,0-9.23,51.69-9.31,51.69a1.52,1.52,0,0,0,1.5,1.57c2.7,0,1.13-6.3,6.68-41.86a49.52,49.52,0,0,1,1-4.95c1.72,13.5,3.3,40.66,13.2,40.66,13.88,0,15.75-31.43,17.93-39.61,1.12,8.1.75,24.76,1.57,35,.75,9.83,2.1,10.8,3.6,10.8,1.73,0,4.13-1.35,10.13-11.48.82-1.38,1.51-2.6,2.12-3.69.12,8,2.19,14.87,5.46,14.87,2.7,0,5.78-4.27,11-14.85q2-4,3.38-7.43c.22,5.48.3,11.93.67,15.38.83,8.1,2.4,6.83,3.08,6.83,2.1,0,4.8-3.38,9.82-11.33,1-1.73,1.91-3.2,2.64-4.47,0,.09,0,.18,0,.27,0,7.8,1.28,15.6,8,15.6,5.39,0,8-5.4,9.45-9.6,0,2-.15,3.82-.23,5.4-3.37,2.33-8.7,11.48-8.7,17.48,0,3.3,1.5,5.62,5.7,5.62,8.85,0,8.18-18.75,9.08-24.15A53.52,53.52,0,0,0,303.09,52.9a2.81,2.81,0,0,0,0,.29c0,8.32,2.1,15.6,5.48,15.6,2.7,0,5.78-4.27,11-14.85,1.36-2.7,2.48-5.18,3.38-7.43.23,5.48.3,11.93.68,15.38.82,8.1,2.4,6.83,3.07,6.83,2.1,0,4.8-3.38,9.83-11.33a120.83,120.83,0,0,0,6.38-11.48A1.58,1.58,0,0,0,342.09,44.56Zm-101.8,19c-1,0-1.5-4-1.5-8.33,0-10.05,2-13.57,3.67-13.57,2.4,0,4.95,5.77,5.11,9.15C245.92,54.31,241.64,63.54,240.29,63.54Zm41.11,20.7c-.75,0-1.13-.6-1.13-1.57,0-3.38,3.68-11,5.56-13.2C285.3,73.59,285.08,84.24,281.4,84.24Zm29-20.7c-1.05,0-1.5-4-1.5-8.33,0-10.05,1.95-13.57,3.68-13.57,2.4,0,4.95,5.77,5.1,9.15C316.06,54.31,311.79,63.54,310.43,63.54Z"/><path class="b10a5f22-ba9f-4b3a-8537-f48203cbe105" d="M388.79,44.79a1.93,1.93,0,0,0-.67-.08,1.57,1.57,0,0,0-1.35.83c-3.08,7-9.68,20.55-18.23,20.55-10.35,0-10.28-15.6-10.28-18.3a20.82,20.82,0,0,0,4.8.45c3.68,0,13.06-1.58,13.06-4.43a1.45,1.45,0,0,0-1.43-1.5,1.48,1.48,0,0,0-.75.23,23.76,23.76,0,0,1-11.4,2.7,18.91,18.91,0,0,1-4.13-.45c1-10.73,6.9-25.73,12.53-25.73,1.43,0,1.87,1.05,1.87,2.55a16.53,16.53,0,0,1-1.27,5.55,1.62,1.62,0,0,0,1.5,1.57c1.88,0,2.7-4.2,2.7-6.37,0-3.45-1.57-6.53-5.62-6.53-9.46,0-17.86,16.88-17.86,32.78,0,12.83,5.55,20.56,14.93,20.56,8.63,0,15.53-6.91,22.35-22.43a1.39,1.39,0,0,0,.08-.6A1.41,1.41,0,0,0,388.79,44.79Z"/></svg>