<svg id="Capa_1" data-name="Capa 1" xmlns="http://www.w3.org/2000/svg" viewBox="0 0 213.49 72.06"><defs><style>.cls-1{fill:#5c666f;}.cls-2{fill:#9e1c64;}</style></defs><title>LOGO</title><path class="cls-1" d="M83.77,55.06a4.1,4.1,0,0,1,4.93-6.55,21.36,21.36,0,0,0,13.8,5.07c5.35,0,8.73-2.53,8.73-6.2v-.14c0-3.52-2-5.42-11.13-7.53C89.61,37.18,83.7,34.08,83.7,25v-.14c0-8.45,7-14.3,16.83-14.3a27.12,27.12,0,0,1,15.63,4.58,3.92,3.92,0,0,1,1.9,3.45,4,4,0,0,1-4.09,4,4.2,4.2,0,0,1-2.25-.63,20.51,20.51,0,0,0-11.33-3.73c-5.07,0-8,2.6-8,5.84v.14c0,3.8,2.25,5.49,11.76,7.75,10.42,2.53,15.77,6.26,15.77,14.43v.14c0,9.22-7.25,14.71-17.6,14.71A30.7,30.7,0,0,1,83.77,55.06Z"/><path class="cls-1" d="M174.72,55.06a4,4,0,0,1,2.39-7.32,4,4,0,0,1,2.53.77,21.38,21.38,0,0,0,13.8,5.07c5.35,0,8.73-2.53,8.73-6.2v-.14c0-3.52-2-5.42-11.12-7.53-10.49-2.53-16.4-5.63-16.4-14.71v-.14c0-8.45,7-14.3,16.82-14.3a27.1,27.1,0,0,1,15.63,4.58,3.9,3.9,0,0,1,1.9,3.45,4,4,0,0,1-4.08,4,4.23,4.23,0,0,1-2.26-.63,20.51,20.51,0,0,0-11.33-3.73c-5.07,0-8,2.6-8,5.84v.14c0,3.8,2.26,5.49,11.76,7.75,10.42,2.53,15.77,6.26,15.77,14.43v.14c0,9.22-7.25,14.71-17.6,14.71A30.67,30.67,0,0,1,174.72,55.06Z"/><path class="cls-1" d="M125.4,15.05a4.42,4.42,0,0,1,4.49-4.49h18.25c5.8,0,10.36,1.59,13.26,4.49a11.37,11.37,0,0,1,3.4,8.4v.14c0,6.09-3.48,9.35-7.24,11.3,5.94,2,10.06,5.43,10.06,12.31v.15c0,9-7.46,13.9-18.75,13.9h-19a4.42,4.42,0,0,1-4.49-4.49Zm20.93,16.87c5.72,0,9.56-2.24,9.56-6.88V24.9c0-4-3.19-6.45-8.91-6.45H134.16V31.92Zm2.61,21.44c6.08,0,9.78-2.39,9.78-7v-.15c0-4.27-3.41-6.81-10.43-6.81H134.16V53.36Z"/><path class="cls-2" d="M60.44,7.22a3.68,3.68,0,0,1-3.68,3.68H28a17.93,17.93,0,1,0,0,35.85h14.4a3.52,3.52,0,1,0,0-7H28a10.89,10.89,0,0,1,0-21.77h14.4a25.29,25.29,0,1,1,0,50.58H13.54a3.68,3.68,0,0,1,0-7.36H42.35a17.93,17.93,0,1,0,0-35.86H28a3.53,3.53,0,0,0,0,7.05h14.4a10.88,10.88,0,1,1,0,21.76H28A25.29,25.29,0,1,1,28,3.54H56.76a3.67,3.67,0,0,1,3.68,3.68"/></svg>